<svg id="Layer_1" xmlns="http://www.w3.org/2000/svg" width="79.5" height="557.4" viewBox="0 0 79.5 557.4"><style>.st0{fill:#0071bc}</style><title>auth-methods</title><path class="st0" d="M52.6 14.2c0-4.7-3.8-8.5-8.5-8.5H28.9c-1.7 0-3.2-1.2-3.7-2.8-.1-.2-.1-.3-.1-.5C25.1 1.1 24 0 22.7 0c-1.3 0-2.4 1.1-2.4 2.4 0 .2 0 .3.1.5.5 4.3 4.1 7.6 8.4 7.6h15.1c2.1 0 3.8 1.7 3.8 3.8H17.6c-2.1 0-3.8 1.7-3.8 3.8v23.6c0 2.1 1.7 3.8 3.8 3.8h37.8c2.1 0 3.8-1.7 3.8-3.8V18c0-2.1-1.7-3.8-3.8-3.8h-2.8zm-10.9 4.7c1.3 0 2.4 1.1 2.4 2.4s-1.1 2.4-2.4 2.4c-1.3 0-2.4-1.1-2.4-2.4s1.1-2.4 2.4-2.4zm0 8.5c1.3 0 2.4 1.1 2.4 2.4s-1.1 2.4-2.4 2.4c-1.3 0-2.4-1.1-2.4-2.4.1-1.3 1.1-2.4 2.4-2.4zm-10.4-8.5c1.3 0 2.4 1.1 2.4 2.4s-1.1 2.4-2.4 2.4c-1.3 0-2.4-1.1-2.4-2.4s1.1-2.4 2.4-2.4zm0 8.5c1.3 0 2.4 1.1 2.4 2.4s-1.1 2.4-2.4 2.4c-1.3 0-2.4-1.1-2.4-2.4.1-1.3 1.1-2.4 2.4-2.4zm-10.4-8.5c1.3 0 2.3 1.1 2.3 2.4 0 1.3-1.1 2.3-2.4 2.3-1.3 0-2.3-1.1-2.3-2.3 0-1.3 1-2.4 2.4-2.4zm0 8.5c1.3 0 2.3 1.1 2.3 2.4 0 1.3-1.1 2.3-2.4 2.3-1.3 0-2.3-1.1-2.3-2.4 0-1.2 1.1-2.3 2.4-2.3zm0 8.5c1.3 0 2.3 1.1 2.3 2.4 0 1.3-1.1 2.3-2.4 2.3-1.3 0-2.3-1.1-2.3-2.4 0-1.2 1.1-2.3 2.4-2.3zm31.2-17c1.3 0 2.4 1.1 2.4 2.4 0 1.3-1.1 2.4-2.4 2.4-1.3 0-2.4-1.1-2.4-2.4 0-1.3 1.1-2.4 2.4-2.4zm0 8.5c1.3 0 2.4 1.1 2.4 2.4s-1.1 2.4-2.4 2.4c-1.3 0-2.4-1.1-2.4-2.4s1.1-2.4 2.4-2.4zm0 8.5c1.3 0 2.4 1.1 2.4 2.4s-1.1 2.4-2.4 2.4c-1.3 0-2.4-1.1-2.4-2.4 0-1.3 1.1-2.4 2.4-2.4zm-8 4.8H28.9c-1 0-1.9-.8-1.9-1.9 0-1 .8-1.9 1.9-1.9H44c1 0 1.9.8 1.9 1.9 0 1-.8 1.9-1.8 1.9zM69.6 399c1 .7 1.3 1.2.5 2.3-2.1 3-4.1 6-6.2 9-.7.9-.9 2.2-.3 3.2 1.1 2.5 2.1 5.2 3.2 7.8 1 2.4.9 2.6-1.5 3.7l-1.6.8c-1.6.8-2 .8-2.7-1-1.6-3.9-3.1-7.8-4.7-11.6-.4-.7-.4-1.6.1-2.2 3.2-4.6 5.8-8.9 9.2-13.3.6-.7 1.7-.2 1.9 0"/><path class="st0" d="M45 412.4c0-.7.2-1.4.7-2 2.2-3.3 4.5-6.5 6.6-9.8.9-1.3 1.7-1.4 3-.7 3.3 1.9 3.4 1.9 1.2 5-1.2 1.8-2.4 3.6-3.7 5.4-.7.8-.9 2-.3 3 .9 2.1 1.7 4.3 2.7 6.4.6 1.3.3 2.2-1 2.8-4.7 2.3-4.1 2.5-6-2.1-.9-2.3-1.8-4.7-2.8-7-.1-.2-.3-.6-.4-1z"/><path class="st0" d="M46.3 403.4c1.2-1.7.9-2.6-.9-3.5-.8-.4-1.6-.6-2.5-.5H17.2c-3.1 0-5.7 2.2-6.1 5.2L9 418.2c-.3 2 1.1 6 4.5 6h26.4c1.4 0 2.7-.6 3.7-1.5.7-.5 1-1.5.5-2.2-1-2.3-1.8-4.8-2.9-7.1-.5-1-.4-2.2.3-3 1.7-2.3 3.2-4.7 4.8-7zm-23.9 6.8c-.2 2.5-.8 5-1 7.6-.1 1.1-.6 1.3-1.6 1.4h-1.1c-1.4-.1-1.6-.3-1.4-1.6.5-2.6.8-5.3 1.2-7.9.2-1.2-.1-1.7-1.4-1.6h-.5c-2.5 0-2.5 0-2-2.5.1-.8.5-1.1 1.3-1.1h5.4c1.6 0 3.3.1 4.9 0 1.1-.1 1.5.2 1.3 1.4-.4 2.2-.3 2.2-2.5 2.2-2.3 0-2.4-.5-2.6 2.1zm16.7-3c-.3.3-.5.7-.7 1.1-.5.9-.9.9-1.7.3-1.6-1.2-3.5-.8-4.9.7-1.4 1.5-1.7 3.9-.6 5.4 1.1 1.4 2.8 1.6 4.7.4.9-.6 1.1-.4 1.5.5 1 2.3.8 2.8-1.6 3.6-1.4.5-2.9.6-4.3.3-3.3-.6-5.2-3.1-5.1-6.5.1-6 6.6-10.4 12-8 1.7.5 1.8.7.7 2.2zm3.7-247.6v5.2H18.6v-31.5h27.1v-2.6c0-2.1-1.7-3.9-3.8-3.9H19.6c-2.1 0-3.8 1.7-3.8 3.8v42.5c0 2.1 1.7 3.9 3.8 3.9h22.2c2.1 0 3.8-1.7 3.8-3.9v-13.6l-2.8.1zm-12 13.8c-1.4 0-2.5-1.1-2.5-2.4s1.1-2.5 2.4-2.5c1.4 0 2.5 1.1 2.5 2.4 0 1.4-1.1 2.5-2.4 2.5z"/><path class="st0" d="M32 141.4v3l2.8-1.7 1.5 2.5-3 1.7 3 2-1.5 2.4-2.8-1.8v3.3h-2.7v-3.3l-2.7 1.5-1.4-2.4L28 147l-2.8-1.7 1.6-2.5 2.6 1.6v-3H32zm13.8 0v3l2.8-1.7 1.5 2.5-3 1.7 3 2-1.5 2.4-2.8-1.8v3.3H43v-3.3l-2.7 1.5-1.4-2.4 2.8-1.7-2.8-1.7 1.6-2.5 2.5 1.6v-3h2.8zm13.7 0v3l2.8-1.7 1.5 2.5-3 1.7 3 2-1.5 2.4-2.8-1.8v3.3h-2.7v-3.3l-2.7 1.5-1.4-2.4 2.8-1.7-2.8-1.7 1.6-2.5 2.5 1.6v-3h2.7zm2.4 120.8c0-.5-.2-.9-.5-1.2l-8.9-8.9c-.7-.7-1.8-.7-2.4 0l-7 7c-.3.3-.3.7 0 1l10.3 10.3c.3.3.7.3 1 0l7-7c.3-.4.5-.8.5-1.2zm-11-2c-.2.2-.5.2-.7 0l-1.9-1.9c-.2-.2-.2-.5 0-.7l1-1c.2-.2.5-.2.7 0l1.9 1.9c.2.2.2.5 0 .7l-1 1zm5 5c-.2.2-.5.2-.7 0l-1.9-1.9c-.2-.2-.2-.5 0-.7l1-1c.2-.2.5-.2.7 0l2 1.9c.2.2.2.5 0 .7l-1.1 1zm-.5 9.9c0-.2-.1-.4-.2-.5l-16.3-16.4c-.3-.3-.7-.3-1 0L14 282.1c-2.9 2.9-2.9 7.6 0 10.4l7 7c2.9 2.9 7.6 2.9 10.4 0l23.8-23.8c.2-.2.2-.4.2-.6zm-32.6 20.8c-.2.2-.5.2-.7 0l-4.5-4.5c-.2-.2-.2-.5 0-.7l1-1c.2-.2.5-.2.7 0l4.5 4.5c.2.2.2.5 0 .7l-1 1zm44.5-13.7c-.1-.1-.3-.2-.5-.2h-7.3v1c0 .4-.3.7-.7.7h-7.1c-.4 0-.7-.3-.7-.7v-.6l-8 8v3.9c0 4.1 3.3 7.4 7.4 7.4h9.8c4.1 0 7.4-3.3 7.4-7.4v-11.6c0-.2-.1-.4-.3-.5zm-5.1 237.4h-45c-1.8 0-3.2 1.4-3.2 3.2v30.3c0 1.8 1.4 3.2 3.2 3.3h45c1.8 0 3.2-1.5 3.2-3.2V523c.1-1.9-1.3-3.3-3.2-3.4.1 0 .1 0 0 0zm-43 3.7h41c.8 0 1.4.6 1.5 1.4v2.3h-44v-2.3c.1-.8.8-1.4 1.5-1.4zm41.1 29.4H19.2c-.8 0-1.4-.6-1.5-1.3V538h44.1v13.3c-.1.8-.7 1.4-1.5 1.4z"/><path class="st0" d="M21.4 543.5h22v1.8h-22zm0 3.7h11v1.8h-11zm29.4-3.7h7.3v5.5h-7.3z"/></svg>